<?xml version="1.0" encoding="UTF-8" standalone="no"?>
<!DOCTYPE svg PUBLIC "-//W3C//DTD SVG 1.1//EN"
 "http://www.w3.org/Graphics/SVG/1.1/DTD/svg11.dtd">
<!-- Generated by graphviz version 12.1.1 (20240910.0053)
 -->
<!-- Title: INFRA Pages: 1 -->
<svg width="2105pt" height="188pt"
 viewBox="0.00 0.00 2105.16 188.00" xmlns="http://www.w3.org/2000/svg" xmlns:xlink="http://www.w3.org/1999/xlink">
<g id="graph0" class="graph" transform="scale(1 1) rotate(0) translate(4 184)">
<title>INFRA</title>
<polygon fill="white" stroke="none" points="-4,4 -4,-184 2101.16,-184 2101.16,4 -4,4"/>
<!-- firstDataSource -->
<g id="node1" class="node">
<title>firstDataSource</title>
<path fill="#ffcfb3" stroke="black" stroke-width="2" d="M227.65,-65.45C227.65,-69.07 192.33,-72 148.84,-72 105.36,-72 70.03,-69.07 70.03,-65.45 70.03,-65.45 70.03,-6.55 70.03,-6.55 70.03,-2.93 105.36,0 148.84,0 192.33,0 227.65,-2.93 227.65,-6.55 227.65,-6.55 227.65,-65.45 227.65,-65.45"/>
<path fill="none" stroke="black" stroke-width="2" d="M227.65,-65.45C227.65,-61.84 192.33,-58.91 148.84,-58.91 105.36,-58.91 70.03,-61.84 70.03,-65.45"/>
<text text-anchor="middle" x="148.84" y="-40.2" font-family="Arial" font-size="14.00">firstDataSource</text>
<text text-anchor="middle" x="148.84" y="-23.4" font-family="Arial" font-size="14.00">(javax.sql.DataSource)</text>
</g>
<!-- dynamicDataSource -->
<g id="node2" class="node">
<title>dynamicDataSource</title>
<path fill="#ffcfb3" stroke="black" stroke-width="2" d="M297.68,-173.45C297.68,-177.07 230.97,-180 148.84,-180 66.71,-180 0,-177.07 0,-173.45 0,-173.45 0,-114.55 0,-114.55 0,-110.93 66.71,-108 148.84,-108 230.97,-108 297.68,-110.93 297.68,-114.55 297.68,-114.55 297.68,-173.45 297.68,-173.45"/>
<path fill="none" stroke="black" stroke-width="2" d="M297.68,-173.45C297.68,-169.84 230.97,-166.91 148.84,-166.91 66.71,-166.91 0,-169.84 0,-173.45"/>
<text text-anchor="middle" x="148.84" y="-148.2" font-family="Arial" font-size="14.00">dynamicDataSource</text>
<text text-anchor="middle" x="148.84" y="-131.4" font-family="Arial" font-size="14.00">(cn.jeefast.datasources.DynamicDataSource)</text>
</g>
<!-- dynamicDataSource&#45;&gt;firstDataSource -->
<g id="edge1" class="edge">
<title>dynamicDataSource&#45;&gt;firstDataSource</title>
<path fill="none" stroke="black" d="M148.84,-107.7C148.84,-99.93 148.84,-91.57 148.84,-83.43"/>
<polygon fill="black" stroke="black" points="152.34,-83.66 148.84,-73.66 145.34,-83.66 152.34,-83.66"/>
</g>
<!-- performanceInterceptor -->
<g id="node3" class="node">
<title>performanceInterceptor</title>
<path fill="#e6e6e6" stroke="black" stroke-width="2" d="M697.93,-180C697.93,-180 327.76,-180 327.76,-180 321.76,-180 315.76,-174 315.76,-168 315.76,-168 315.76,-120 315.76,-120 315.76,-114 321.76,-108 327.76,-108 327.76,-108 697.93,-108 697.93,-108 703.93,-108 709.93,-114 709.93,-120 709.93,-120 709.93,-168 709.93,-168 709.93,-174 703.93,-180 697.93,-180"/>
<text text-anchor="middle" x="512.84" y="-148.2" font-family="Arial" font-size="14.00">performanceInterceptor</text>
<text text-anchor="middle" x="512.84" y="-131.4" font-family="Arial" font-size="14.00">(com.baomidou.mybatisplus.plugins.PerformanceInterceptor)</text>
</g>
<!-- paginationInterceptor -->
<g id="node4" class="node">
<title>paginationInterceptor</title>
<path fill="#e6e6e6" stroke="black" stroke-width="2" d="M1095.94,-180C1095.94,-180 739.75,-180 739.75,-180 733.75,-180 727.75,-174 727.75,-168 727.75,-168 727.75,-120 727.75,-120 727.75,-114 733.75,-108 739.75,-108 739.75,-108 1095.94,-108 1095.94,-108 1101.94,-108 1107.94,-114 1107.94,-120 1107.94,-120 1107.94,-168 1107.94,-168 1107.94,-174 1101.94,-180 1095.94,-180"/>
<text text-anchor="middle" x="917.84" y="-148.2" font-family="Arial" font-size="14.00">paginationInterceptor</text>
<text text-anchor="middle" x="917.84" y="-131.4" font-family="Arial" font-size="14.00">(com.baomidou.mybatisplus.plugins.PaginationInterceptor)</text>
</g>
<!-- staticResourceHandler -->
<g id="node5" class="node">
<title>staticResourceHandler</title>
<path fill="#e78f81" stroke="black" stroke-width="2" d="M1590.16,-180C1590.16,-180 1137.52,-180 1137.52,-180 1131.52,-180 1125.52,-174 1125.52,-168 1125.52,-168 1125.52,-120 1125.52,-120 1125.52,-114 1131.52,-108 1137.52,-108 1137.52,-108 1590.16,-108 1590.16,-108 1596.16,-108 1602.16,-114 1602.16,-120 1602.16,-120 1602.16,-168 1602.16,-168 1602.16,-174 1596.16,-180 1590.16,-180"/>
<text text-anchor="middle" x="1363.84" y="-148.2" font-family="Arial" font-size="14.00">staticResourceHandler</text>
<text text-anchor="middle" x="1363.84" y="-131.4" font-family="Arial" font-size="14.00">(org.springframework.web.servlet.resource.ResourceHttpRequestHandler)</text>
</g>
<!-- uploadResourceHandler -->
<g id="node6" class="node">
<title>uploadResourceHandler</title>
<path fill="#e78f81" stroke="black" stroke-width="2" d="M2085.16,-180C2085.16,-180 1632.52,-180 1632.52,-180 1626.52,-180 1620.52,-174 1620.52,-168 1620.52,-168 1620.52,-120 1620.52,-120 1620.52,-114 1626.52,-108 1632.52,-108 1632.52,-108 2085.16,-108 2085.16,-108 2091.16,-108 2097.16,-114 2097.16,-120 2097.16,-120 2097.16,-168 2097.16,-168 2097.16,-174 2091.16,-180 2085.16,-180"/>
<text text-anchor="middle" x="1858.84" y="-148.2" font-family="Arial" font-size="14.00">uploadResourceHandler</text>
<text text-anchor="middle" x="1858.84" y="-131.4" font-family="Arial" font-size="14.00">(org.springframework.web.servlet.resource.ResourceHttpRequestHandler)</text>
</g>
</g>
</svg>
